<svg id="Group_273" data-name="Group 273" xmlns="http://www.w3.org/2000/svg" width="52.498" height="49.042" viewBox="0 0 52.498 49.042">
  <path id="Path_2435" data-name="Path 2435" d="M451.508,216.637a4.386,4.386,0,0,1-3.816-2.232.9.9,0,1,1,1.564-.881,2.582,2.582,0,1,0,2.252-3.846,4.377,4.377,0,1,1,3.8-6.556.9.9,0,0,1-1.556.9,2.582,2.582,0,1,0-2.241,3.866,4.377,4.377,0,1,1,0,8.754Z" transform="translate(-423.463 -184.26)" fill="#fff"/>
  <path id="Path_2436" data-name="Path 2436" d="M451.888,219.388a.9.9,0,0,1-.9-.9v-5.068a.9.9,0,1,1,1.795,0v5.068A.9.9,0,0,1,451.888,219.388Z" transform="translate(-423.844 -185.403)" fill="#fff"/>
  <path id="Path_2437" data-name="Path 2437" d="M451.888,205.54a.9.9,0,0,1-.9-.9v-4.6a.9.9,0,0,1,1.795,0v4.6A.9.9,0,0,1,451.888,205.54Z" transform="translate(-423.844 -184.084)" fill="#fff"/>
  <path id="Path_2438" data-name="Path 2438" d="M450.652,220.482a12.174,12.174,0,1,1,12.173-12.173A12.186,12.186,0,0,1,450.652,220.482Zm0-22.551a10.378,10.378,0,1,0,10.378,10.378A10.39,10.39,0,0,0,450.652,197.931Z" transform="translate(-422.611 -183.788)" fill="#fff"/>
  <path id="Path_2439" data-name="Path 2439" d="M430.972,201.565a.886.886,0,0,1-.309-.056.9.9,0,0,1-.533-1.151A21.077,21.077,0,0,1,440.937,188.6a.9.9,0,1,1,.758,1.627,19.271,19.271,0,0,0-9.881,10.748A.9.9,0,0,1,430.972,201.565Z" transform="translate(-421.782 -183.037)" fill="#fff"/>
  <path id="Path_2440" data-name="Path 2440" d="M448.853,231.876a23.6,23.6,0,0,1-23.085-18.621h-4a.9.9,0,0,1-.594-1.57l6.457-5.706a.9.9,0,0,1,1.189,0l6.457,5.706a.9.9,0,0,1-.594,1.57h-3.344a18.321,18.321,0,0,0,17.51,13.208,19.108,19.108,0,1,0,0-38.217.9.9,0,0,1,0-1.795,20.9,20.9,0,1,1,0,41.806,20.114,20.114,0,0,1-19.538-15.709.9.9,0,0,1,.877-1.089h2.125l-4.087-3.611-4.086,3.611H426.5a.9.9,0,0,1,.883.736,21.805,21.805,0,0,0,21.466,17.886,22.743,22.743,0,0,0,21.6-29.816.9.9,0,0,1,1.706-.56,24.541,24.541,0,0,1-23.305,32.171Z" transform="translate(-420.876 -182.834)" fill="#fff"/>
  <path id="Path_2441" data-name="Path 2441" d="M426.566,201.505a.9.9,0,0,1-.865-1.139,24.527,24.527,0,0,1,42.838-8.645.9.9,0,0,1-1.406,1.116,22.732,22.732,0,0,0-39.7,8.01A.9.9,0,0,1,426.566,201.505Z" transform="translate(-421.348 -182.438)" fill="#fff"/>
</svg>
